<?xml version="1.0" encoding="UTF-8"?>
<svg xmlns="http://www.w3.org/2000/svg" xmlns:xlink="http://www.w3.org/1999/xlink" viewBox="0 0 64 64" width="64px" height="64px">
<g id="surface204209599">
<path style=" stroke:none;fill-rule:nonzero;fill:rgb(0%,0%,0%);fill-opacity:1;" d="M 49.777344 42.667969 C 51.742188 42.667969 53.332031 44.257812 53.332031 46.222656 C 53.332031 48.1875 51.742188 49.777344 49.777344 49.777344 C 48.710938 49.777344 15.289062 49.777344 14.222656 49.777344 C 12.257812 49.777344 10.667969 48.1875 10.667969 46.222656 C 10.667969 44.257812 12.257812 42.667969 14.222656 42.667969 C 15.289062 42.667969 48.710938 42.667969 49.777344 42.667969 Z M 49.777344 28.445312 C 51.742188 28.445312 53.332031 30.035156 53.332031 32 C 53.332031 33.964844 51.742188 35.554688 49.777344 35.554688 C 48.710938 35.554688 15.289062 35.554688 14.222656 35.554688 C 12.257812 35.554688 10.667969 33.964844 10.667969 32 C 10.667969 30.035156 12.257812 28.445312 14.222656 28.445312 C 15.289062 28.445312 48.710938 28.445312 49.777344 28.445312 Z M 49.777344 14.222656 C 51.742188 14.222656 53.332031 15.8125 53.332031 17.777344 C 53.332031 19.742188 51.742188 21.332031 49.777344 21.332031 C 48.710938 21.332031 15.289062 21.332031 14.222656 21.332031 C 12.257812 21.332031 10.667969 19.742188 10.667969 17.777344 C 10.667969 15.8125 12.257812 14.222656 14.222656 14.222656 C 15.289062 14.222656 48.710938 14.222656 49.777344 14.222656 Z M 49.777344 14.222656 "/>
</g>
</svg>
